<svg xmlns="http://www.w3.org/2000/svg" fill="none" viewBox="0 0 24 24" id="Login--Streamline-Rounded-Material" height="24" width="24">
  <desc>
    Login Streamline Icon: https://streamlinehq.com
  </desc>
  <path d="M12.775 21c-0.2125 0 -0.3906 -0.07235 -0.53425 -0.217 -0.14385 -0.1445 -0.21575 -0.32365 -0.21575 -0.5375 0 -0.21365 0.0719 -0.39135 0.21575 -0.533 0.14365 -0.14165 0.32175 -0.2125 0.53425 -0.2125H19.5V4.5H12.775c-0.2125 0 -0.3906 -0.072335 -0.53425 -0.217 -0.14385 -0.1445 -0.21575 -0.323665 -0.21575 -0.5375 0 -0.213665 0.0719 -0.391335 0.21575 -0.533C12.3844 3.070835 12.5625 3 12.775 3H19.5c0.4 0 0.75 0.15 1.05 0.45 0.3 0.3 0.45 0.65 0.45 1.05v15c0 0.4 -0.15 0.75 -0.45 1.05 -0.3 0.3 -0.65 0.45 -1.05 0.45H12.775Zm-0.65 -8.25H3.75c-0.2125 0 -0.390585 -0.07235 -0.53425 -0.217C3.071915 12.3885 3 12.20935 3 11.9955c0 -0.21365 0.071915 -0.39135 0.21575 -0.533 0.143665 -0.14165 0.32175 -0.2125 0.53425 -0.2125h8.325l-2.025 -2.025c-0.15 -0.15 -0.22085 -0.325 -0.2125 -0.525 0.00835 -0.2 0.0875 -0.375 0.2375 -0.525 0.15 -0.15 0.32915 -0.225 0.5375 -0.225 0.20835 0 0.3875 0.075 0.5375 0.225L14.475 11.5c0.15 0.15 0.225 0.325 0.225 0.525s-0.075 0.375 -0.225 0.525l-3.3 3.3c-0.14665 0.15 -0.32085 0.22085 -0.5225 0.2125 -0.20165 -0.00835 -0.38075 -0.0875 -0.53725 -0.2375 -0.1435 -0.15 -0.21525 -0.32915 -0.21525 -0.5375 0 -0.20835 0.075 -0.3875 0.225 -0.5375l2 -2Z" stroke-width="0.5"></path>
</svg>